<svg width="50" height="50" viewBox="0 0 50 50" fill="none" xmlns="http://www.w3.org/2000/svg">
<rect width="50" height="50" rx="10" fill="#073902"/>
<g filter="url(#filter0_d_1_96)">
<rect x="30.1127" y="16" width="14.0247" height="21.0371" transform="rotate(17.9596 30.1127 16)" fill="#FFF4E2"/>
</g>
<path d="M31.626 20C34.126 22 38.126 19 40.626 22" stroke="black" stroke-width="0.5"/>
<path d="M26.626 35C29.126 37 33.126 34 35.626 37" stroke="black" stroke-width="0.5"/>
<path d="M27.626 32C30.126 34 34.126 31 36.626 34" stroke="black" stroke-width="0.5"/>
<path d="M28.626 29C31.126 31 35.126 28 37.626 31" stroke="black" stroke-width="0.5"/>
<path d="M29.626 26C32.126 28 36.126 25 38.626 28" stroke="black" stroke-width="0.5"/>
<path d="M30.626 23C33.126 25 37.126 22 39.626 25" stroke="black" stroke-width="0.5"/>
<g filter="url(#filter1_d_1_96)">
<rect x="6.763" y="20.5601" width="14.0247" height="21.0371" transform="rotate(-24.7947 6.763 20.5601)" fill="#FFF4E2"/>
</g>
<path d="M10.5896 22.4699C13.783 22.2413 14.6835 17.323 18.5558 17.8287" stroke="black" stroke-width="0.5"/>
<path d="M17.1011 36.8782C20.2945 36.6496 21.195 31.7314 25.0672 32.2371" stroke="black" stroke-width="0.5"/>
<path d="M15.7988 33.9966C18.9922 33.768 19.8927 28.8497 23.7649 29.3554" stroke="black" stroke-width="0.5"/>
<path d="M14.4965 31.1149C17.6899 30.8863 18.5904 25.9681 22.4626 26.4737" stroke="black" stroke-width="0.5"/>
<path d="M13.1942 28.2332C16.3876 28.0046 17.2881 23.0864 21.1603 23.5921" stroke="black" stroke-width="0.5"/>
<path d="M11.8919 25.3515C15.0853 25.123 15.9858 20.2047 19.8581 20.7104" stroke="black" stroke-width="0.5"/>
<g filter="url(#filter2_d_1_96)">
<rect x="18.8044" y="11.0642" width="14.0247" height="21.0371" transform="rotate(0.223357 18.8044 11.0642)" fill="#FFF4E2"/>
</g>
<path d="M21.4643 14.4131C24.4548 15.5565 27.3507 11.4805 30.6458 13.5763" stroke="black" stroke-width="0.5"/>
<path d="M21.2715 30.2233C24.262 31.3667 27.1579 27.2907 30.453 29.3866" stroke="black" stroke-width="0.5"/>
<path d="M21.3101 27.0613C24.3005 28.2046 27.1965 24.1287 30.4916 26.2245" stroke="black" stroke-width="0.5"/>
<path d="M21.3486 23.8992C24.3391 25.0426 27.235 20.9666 30.5301 23.0625" stroke="black" stroke-width="0.5"/>
<path d="M21.3872 20.7372C24.3776 21.8805 27.2736 17.8046 30.5687 19.9004" stroke="black" stroke-width="0.5"/>
<path d="M21.4258 17.5751C24.4162 18.7185 27.3122 14.6426 30.6073 16.7384" stroke="black" stroke-width="0.5"/>
<defs>
<filter id="filter0_d_1_96" x="20.8211" y="16" width="25.4379" height="29.9464" filterUnits="userSpaceOnUse" color-interpolation-filters="sRGB">
<feFlood flood-opacity="0" result="BackgroundImageFix"/>
<feColorMatrix in="SourceAlpha" type="matrix" values="0 0 0 0 0 0 0 0 0 0 0 0 0 0 0 0 0 0 127 0" result="hardAlpha"/>
<feOffset dy="2.80494"/>
<feGaussianBlur stdDeviation="1.40247"/>
<feComposite in2="hardAlpha" operator="out"/>
<feColorMatrix type="matrix" values="0 0 0 0 0 0 0 0 0 0 0 0 0 0 0 0 0 0 0.5 0"/>
<feBlend mode="normal" in2="BackgroundImageFix" result="effect1_dropShadow_1_96"/>
<feBlend mode="normal" in="SourceGraphic" in2="effect1_dropShadow_1_96" result="shape"/>
</filter>
<filter id="filter1_d_1_96" x="3.95806" y="14.6786" width="27.164" height="30.5892" filterUnits="userSpaceOnUse" color-interpolation-filters="sRGB">
<feFlood flood-opacity="0" result="BackgroundImageFix"/>
<feColorMatrix in="SourceAlpha" type="matrix" values="0 0 0 0 0 0 0 0 0 0 0 0 0 0 0 0 0 0 127 0" result="hardAlpha"/>
<feOffset dy="2.80494"/>
<feGaussianBlur stdDeviation="1.40247"/>
<feComposite in2="hardAlpha" operator="out"/>
<feColorMatrix type="matrix" values="0 0 0 0 0 0 0 0 0 0 0 0 0 0 0 0 0 0 0.5 0"/>
<feBlend mode="normal" in2="BackgroundImageFix" result="effect1_dropShadow_1_96"/>
<feBlend mode="normal" in="SourceGraphic" in2="effect1_dropShadow_1_96" result="shape"/>
</filter>
<filter id="filter2_d_1_96" x="15.9175" y="11.0642" width="19.7165" height="26.7015" filterUnits="userSpaceOnUse" color-interpolation-filters="sRGB">
<feFlood flood-opacity="0" result="BackgroundImageFix"/>
<feColorMatrix in="SourceAlpha" type="matrix" values="0 0 0 0 0 0 0 0 0 0 0 0 0 0 0 0 0 0 127 0" result="hardAlpha"/>
<feOffset dy="2.80494"/>
<feGaussianBlur stdDeviation="1.40247"/>
<feComposite in2="hardAlpha" operator="out"/>
<feColorMatrix type="matrix" values="0 0 0 0 0 0 0 0 0 0 0 0 0 0 0 0 0 0 0.5 0"/>
<feBlend mode="normal" in2="BackgroundImageFix" result="effect1_dropShadow_1_96"/>
<feBlend mode="normal" in="SourceGraphic" in2="effect1_dropShadow_1_96" result="shape"/>
</filter>
</defs>
</svg>